<svg width="392" height="91" viewBox="0 0 392 91" fill="none" xmlns="http://www.w3.org/2000/svg">
<path d="M38.28 15L34.216 9.48L35.512 8.68L40.104 15H38.28ZM30.744 15V3.8H32.312V15H30.744ZM31.832 10.072V8.664H35.464V10.072H31.832ZM35.656 9.576L34.184 9.352L38.2 3.8H39.912L35.656 9.576ZM50.0908 15V6.52H51.6268V15H50.0908ZM45.5308 9.4C46.6081 9.41067 47.4241 9.656 47.9788 10.136C48.5441 10.616 48.8268 11.2933 48.8268 12.168C48.8268 13.0853 48.5174 13.7947 47.8988 14.296C47.2908 14.7867 46.4161 15.0267 45.2748 15.016L41.7068 15V6.52H43.2428V9.384L45.5308 9.4ZM45.1628 13.848C45.8454 13.8587 46.3681 13.72 46.7308 13.432C47.0934 13.144 47.2748 12.7173 47.2748 12.152C47.2748 11.5973 47.0934 11.192 46.7308 10.936C46.3788 10.68 45.8561 10.5467 45.1628 10.536L43.2428 10.504V13.832L45.1628 13.848ZM59.109 15.096C58.405 15.096 57.7597 14.936 57.173 14.616C56.597 14.2853 56.133 13.8 55.781 13.16C55.4397 12.52 55.269 11.72 55.269 10.76C55.269 9.8 55.4343 9 55.765 8.36C56.1063 7.72 56.565 7.24 57.141 6.92C57.7277 6.6 58.3837 6.44 59.109 6.44C59.941 6.44 60.677 6.62133 61.317 6.984C61.957 7.34667 62.4637 7.85333 62.837 8.504C63.2103 9.144 63.397 9.896 63.397 10.76C63.397 11.624 63.2103 12.3813 62.837 13.032C62.4637 13.6827 61.957 14.1893 61.317 14.552C60.677 14.9147 59.941 15.096 59.109 15.096ZM54.613 18.104V6.52H56.085V8.808L55.989 10.776L56.149 12.744V18.104H54.613ZM58.981 13.752C59.525 13.752 60.0103 13.6293 60.437 13.384C60.8743 13.1387 61.2157 12.792 61.461 12.344C61.717 11.8853 61.845 11.3573 61.845 10.76C61.845 10.152 61.717 9.62933 61.461 9.192C61.2157 8.744 60.8743 8.39733 60.437 8.152C60.0103 7.90667 59.525 7.784 58.981 7.784C58.4477 7.784 57.9623 7.90667 57.525 8.152C57.0983 8.39733 56.757 8.744 56.501 9.192C56.2557 9.62933 56.133 10.152 56.133 10.76C56.133 11.3573 56.2557 11.8853 56.501 12.344C56.757 12.792 57.0983 13.1387 57.525 13.384C57.9623 13.6293 58.4477 13.752 58.981 13.752ZM65.6286 15V6.52H71.8686V7.864H66.7966L67.1646 7.512V15H65.6286ZM81.8251 15V6.52H83.3611V15H81.8251ZM77.2651 9.4C78.3425 9.41067 79.1585 9.656 79.7131 10.136C80.2785 10.616 80.5611 11.2933 80.5611 12.168C80.5611 13.0853 80.2518 13.7947 79.6331 14.296C79.0251 14.7867 78.1505 15.0267 77.0091 15.016L73.4411 15V6.52H74.9771V9.384L77.2651 9.4ZM76.8971 13.848C77.5798 13.8587 78.1025 13.72 78.4651 13.432C78.8278 13.144 79.0091 12.7173 79.0091 12.152C79.0091 11.5973 78.8278 11.192 78.4651 10.936C78.1131 10.68 77.5905 10.5467 76.8971 10.536L74.9771 10.504V13.832L76.8971 13.848ZM88.6868 15.112C89.4334 15.112 90.0948 15.0053 90.6708 14.792C91.2574 14.568 91.7214 14.264 92.0628 13.88C92.4041 13.4853 92.5748 13.032 92.5748 12.52C92.5748 11.88 92.3028 11.3733 91.7588 11C91.2148 10.6267 90.4681 10.44 89.5188 10.44L89.4548 10.808C90.0094 10.808 90.5001 10.7173 90.9268 10.536C91.3534 10.3547 91.6948 10.1093 91.9508 9.8C92.2068 9.48 92.3348 9.11733 92.3348 8.712C92.3348 8.232 92.1641 7.816 91.8228 7.464C91.4921 7.112 91.0388 6.84533 90.4628 6.664C89.8868 6.472 89.2308 6.38667 88.4948 6.408C88.0041 6.41867 87.5081 6.49333 87.0068 6.632C86.5161 6.76 86.0148 6.94667 85.5028 7.192L85.9188 8.392C86.3774 8.168 86.8254 8.00267 87.2628 7.896C87.7108 7.78933 88.1481 7.73067 88.5748 7.72C89.0121 7.72 89.3908 7.768 89.7108 7.864C90.0414 7.96 90.2974 8.09867 90.4788 8.28C90.6601 8.46133 90.7508 8.68 90.7508 8.936C90.7508 9.17067 90.6708 9.37867 90.5108 9.56C90.3614 9.73067 90.1481 9.85867 89.8708 9.944C89.5934 10.0293 89.2681 10.072 88.8948 10.072H87.4548V11.176H88.9908C89.6201 11.176 90.1108 11.2827 90.4628 11.496C90.8148 11.7093 90.9908 12.0133 90.9908 12.408C90.9908 12.6853 90.8948 12.9307 90.7028 13.144C90.5108 13.3467 90.2334 13.5067 89.8708 13.624C89.5188 13.7413 89.0974 13.8 88.6068 13.8C88.0734 13.8 87.5454 13.7307 87.0228 13.592C86.5001 13.4427 86.0361 13.24 85.6308 12.984L85.1668 14.152C85.6468 14.4613 86.1908 14.7013 86.7988 14.872C87.4174 15.032 88.0468 15.112 88.6868 15.112ZM99.4628 15V3.8H103.831C104.812 3.8 105.649 3.95467 106.343 4.264C107.036 4.57333 107.569 5.02133 107.943 5.608C108.316 6.19467 108.503 6.89333 108.503 7.704C108.503 8.51467 108.316 9.21333 107.943 9.8C107.569 10.376 107.036 10.824 106.343 11.144C105.649 11.4533 104.812 11.608 103.831 11.608H100.343L101.063 10.856V15H99.4628ZM101.063 11.016L100.343 10.216H103.783C104.807 10.216 105.58 9.99733 106.103 9.56C106.636 9.12267 106.903 8.504 106.903 7.704C106.903 6.904 106.636 6.28533 106.103 5.848C105.58 5.41067 104.807 5.192 103.783 5.192H100.343L101.063 4.392V11.016ZM114.217 15.096C113.31 15.096 112.51 14.9093 111.817 14.536C111.134 14.1627 110.601 13.6507 110.217 13C109.844 12.3493 109.657 11.6027 109.657 10.76C109.657 9.91733 109.838 9.17067 110.201 8.52C110.574 7.86933 111.081 7.36267 111.721 7C112.372 6.62667 113.102 6.44 113.913 6.44C114.734 6.44 115.46 6.62133 116.089 6.984C116.718 7.34667 117.209 7.85867 117.561 8.52C117.924 9.17067 118.105 9.93333 118.105 10.808C118.105 10.872 118.1 10.9467 118.089 11.032C118.089 11.1173 118.084 11.1973 118.073 11.272H110.857V10.168H117.273L116.649 10.552C116.66 10.008 116.548 9.52267 116.313 9.096C116.078 8.66933 115.753 8.33867 115.337 8.104C114.932 7.85867 114.457 7.736 113.913 7.736C113.38 7.736 112.905 7.85867 112.489 8.104C112.073 8.33867 111.748 8.67467 111.513 9.112C111.278 9.53867 111.161 10.0293 111.161 10.584V10.84C111.161 11.4053 111.289 11.912 111.545 12.36C111.812 12.7973 112.18 13.1387 112.649 13.384C113.118 13.6293 113.657 13.752 114.265 13.752C114.766 13.752 115.22 13.6667 115.625 13.496C116.041 13.3253 116.404 13.0693 116.713 12.728L117.561 13.72C117.177 14.168 116.697 14.5093 116.121 14.744C115.556 14.9787 114.921 15.096 114.217 15.096ZM124.184 15.096C123.32 15.096 122.547 14.9093 121.864 14.536C121.192 14.1627 120.664 13.6507 120.28 13C119.896 12.3493 119.704 11.6027 119.704 10.76C119.704 9.91733 119.896 9.17067 120.28 8.52C120.664 7.86933 121.192 7.36267 121.864 7C122.547 6.62667 123.32 6.44 124.184 6.44C124.952 6.44 125.635 6.59467 126.232 6.904C126.84 7.20267 127.309 7.65067 127.64 8.248L126.472 9C126.195 8.584 125.853 8.28 125.448 8.088C125.053 7.88533 124.627 7.784 124.168 7.784C123.613 7.784 123.117 7.90667 122.68 8.152C122.243 8.39733 121.896 8.744 121.64 9.192C121.384 9.62933 121.256 10.152 121.256 10.76C121.256 11.368 121.384 11.896 121.64 12.344C121.896 12.792 122.243 13.1387 122.68 13.384C123.117 13.6293 123.613 13.752 124.168 13.752C124.627 13.752 125.053 13.656 125.448 13.464C125.853 13.2613 126.195 12.952 126.472 12.536L127.64 13.272C127.309 13.8587 126.84 14.312 126.232 14.632C125.635 14.9413 124.952 15.096 124.184 15.096ZM129.629 15V6.52H137.485V15H135.949V7.48L136.317 7.864H130.797L131.165 7.48V15H129.629ZM140.889 18.2C140.483 18.2 140.089 18.1307 139.705 17.992C139.321 17.864 138.99 17.672 138.713 17.416L139.369 16.264C139.582 16.4667 139.817 16.6213 140.073 16.728C140.329 16.8347 140.601 16.888 140.889 16.888C141.262 16.888 141.571 16.792 141.817 16.6C142.062 16.408 142.291 16.0667 142.505 15.576L143.033 14.408L143.193 14.216L146.521 6.52H148.025L143.913 15.848C143.667 16.4453 143.39 16.9147 143.081 17.256C142.782 17.5973 142.451 17.8373 142.089 17.976C141.726 18.1253 141.326 18.2 140.889 18.2ZM142.905 15.272L139.033 6.52H140.633L143.929 14.072L142.905 15.272ZM153.408 15.128C152.704 15.128 152.08 15.016 151.536 14.792C151.003 14.568 150.544 14.2373 150.16 13.8C149.776 13.352 149.483 12.792 149.28 12.12C149.088 11.4373 148.992 10.6373 148.992 9.72C148.992 8.99467 149.056 8.344 149.184 7.768C149.312 7.192 149.493 6.68 149.728 6.232C149.973 5.784 150.272 5.39467 150.624 5.064C150.987 4.73333 151.392 4.46133 151.84 4.248C152.299 4.024 152.8 3.85333 153.344 3.736L157.216 2.872L157.44 4.296L153.872 5.064C153.659 5.10667 153.403 5.17067 153.104 5.256C152.805 5.34133 152.501 5.47467 152.192 5.656C151.883 5.82667 151.595 6.06667 151.328 6.376C151.061 6.68533 150.848 7.09067 150.688 7.592C150.528 8.08267 150.448 8.69067 150.448 9.416C150.448 9.61867 150.453 9.77333 150.464 9.88C150.475 9.98667 150.485 10.0933 150.496 10.2C150.517 10.3067 150.533 10.4667 150.544 10.68L149.904 10.024C150.075 9.43733 150.347 8.92533 150.72 8.488C151.093 8.05067 151.541 7.71467 152.064 7.48C152.597 7.23467 153.179 7.112 153.808 7.112C154.597 7.112 155.296 7.28267 155.904 7.624C156.523 7.96533 157.008 8.43467 157.36 9.032C157.712 9.62933 157.888 10.312 157.888 11.08C157.888 11.8587 157.701 12.5573 157.328 13.176C156.965 13.784 156.448 14.264 155.776 14.616C155.104 14.9573 154.315 15.128 153.408 15.128ZM153.552 13.848C154.096 13.848 154.576 13.7307 154.992 13.496C155.408 13.2507 155.733 12.9253 155.968 12.52C156.203 12.104 156.32 11.64 156.32 11.128C156.32 10.616 156.203 10.1627 155.968 9.768C155.733 9.37333 155.408 9.064 154.992 8.84C154.576 8.60533 154.085 8.488 153.52 8.488C152.987 8.488 152.507 8.6 152.08 8.824C151.653 9.03733 151.323 9.34133 151.088 9.736C150.853 10.12 150.736 10.568 150.736 11.08C150.736 11.592 150.853 12.0613 151.088 12.488C151.333 12.904 151.664 13.2347 152.08 13.48C152.507 13.7253 152.997 13.848 153.552 13.848ZM158.611 14.984L158.707 13.688C158.782 13.6987 158.851 13.7093 158.915 13.72C158.979 13.7307 159.038 13.736 159.091 13.736C159.433 13.736 159.699 13.6187 159.891 13.384C160.094 13.1493 160.243 12.84 160.339 12.456C160.435 12.0613 160.505 11.6187 160.547 11.128C160.59 10.6373 160.622 10.1467 160.643 9.656L160.787 6.52H167.299V15H165.763V7.416L166.131 7.864H161.779L162.131 7.4L162.019 9.752C161.987 10.4987 161.929 11.1973 161.843 11.848C161.758 12.4987 161.625 13.0693 161.443 13.56C161.273 14.0507 161.033 14.4347 160.723 14.712C160.425 14.9893 160.035 15.128 159.555 15.128C159.417 15.128 159.267 15.112 159.107 15.08C158.958 15.0587 158.793 15.0267 158.611 14.984ZM170.269 15V6.52H171.805V12.696L177.005 6.52H178.397V15H176.861V8.824L171.677 15H170.269ZM187.523 15L184.243 10.872L185.507 10.104L189.331 15H187.523ZM181.379 15V6.52H182.915V15H181.379ZM182.451 11.416V10.104H185.251V11.416H182.451ZM185.635 10.936L184.211 10.744L187.459 6.52H189.107L185.635 10.936ZM195.985 15V13.208L195.905 12.872V9.816C195.905 9.16533 195.713 8.664 195.329 8.312C194.956 7.94933 194.39 7.768 193.633 7.768C193.132 7.768 192.641 7.85333 192.161 8.024C191.681 8.184 191.276 8.40267 190.945 8.68L190.305 7.528C190.742 7.176 191.265 6.90933 191.873 6.728C192.492 6.536 193.137 6.44 193.809 6.44C194.972 6.44 195.868 6.72267 196.497 7.288C197.126 7.85333 197.441 8.71733 197.441 9.88V15H195.985ZM193.201 15.096C192.572 15.096 192.017 14.9893 191.537 14.776C191.068 14.5627 190.705 14.2693 190.449 13.896C190.193 13.512 190.065 13.08 190.065 12.6C190.065 12.1413 190.172 11.7253 190.385 11.352C190.609 10.9787 190.966 10.68 191.457 10.456C191.958 10.232 192.63 10.12 193.473 10.12H196.161V11.224H193.537C192.769 11.224 192.252 11.352 191.985 11.608C191.718 11.864 191.585 12.1733 191.585 12.536C191.585 12.952 191.75 13.288 192.081 13.544C192.412 13.7893 192.87 13.912 193.457 13.912C194.033 13.912 194.534 13.784 194.961 13.528C195.398 13.272 195.713 12.8987 195.905 12.408L196.209 13.464C196.006 13.9653 195.649 14.3653 195.137 14.664C194.625 14.952 193.98 15.096 193.201 15.096ZM203.903 15.096C203.039 15.096 202.265 14.9093 201.583 14.536C200.911 14.1627 200.383 13.6507 199.999 13C199.615 12.3493 199.423 11.6027 199.423 10.76C199.423 9.91733 199.615 9.17067 199.999 8.52C200.383 7.86933 200.911 7.36267 201.583 7C202.265 6.62667 203.039 6.44 203.903 6.44C204.671 6.44 205.353 6.59467 205.951 6.904C206.559 7.20267 207.028 7.65067 207.359 8.248L206.191 9C205.913 8.584 205.572 8.28 205.167 8.088C204.772 7.88533 204.345 7.784 203.887 7.784C203.332 7.784 202.836 7.90667 202.399 8.152C201.961 8.39733 201.615 8.744 201.359 9.192C201.103 9.62933 200.975 10.152 200.975 10.76C200.975 11.368 201.103 11.896 201.359 12.344C201.615 12.792 201.961 13.1387 202.399 13.384C202.836 13.6293 203.332 13.752 203.887 13.752C204.345 13.752 204.772 13.656 205.167 13.464C205.572 13.2613 205.913 12.952 206.191 12.536L207.359 13.272C207.028 13.8587 206.559 14.312 205.951 14.632C205.353 14.9413 204.671 15.096 203.903 15.096ZM217.731 15V6.52H219.267V15H217.731ZM213.171 9.4C214.249 9.41067 215.065 9.656 215.619 10.136C216.185 10.616 216.467 11.2933 216.467 12.168C216.467 13.0853 216.158 13.7947 215.539 14.296C214.931 14.7867 214.057 15.0267 212.915 15.016L209.347 15V6.52H210.883V9.384L213.171 9.4ZM212.803 13.848C213.486 13.8587 214.009 13.72 214.371 13.432C214.734 13.144 214.915 12.7173 214.915 12.152C214.915 11.5973 214.734 11.192 214.371 10.936C214.019 10.68 213.497 10.5467 212.803 10.536L210.883 10.504V13.832L212.803 13.848ZM221.614 17.368L222.414 14.136L222.622 15.064C222.312 15.064 222.051 14.968 221.838 14.776C221.635 14.584 221.534 14.3227 221.534 13.992C221.534 13.672 221.635 13.4107 221.838 13.208C222.051 13.0053 222.307 12.904 222.606 12.904C222.915 12.904 223.166 13.0107 223.358 13.224C223.55 13.4267 223.646 13.6827 223.646 13.992C223.646 14.0987 223.635 14.2053 223.614 14.312C223.603 14.408 223.576 14.5253 223.534 14.664C223.502 14.792 223.448 14.952 223.374 15.144L222.622 17.368H221.614ZM235.344 7.704C236.666 7.704 237.685 8.00267 238.4 8.6C239.114 9.18667 239.472 10.0667 239.472 11.24C239.472 12.4773 239.082 13.416 238.304 14.056C237.536 14.6853 236.453 15 235.056 15H230.432V3.8H232.016V7.704H235.344ZM234.992 13.736C235.92 13.736 236.629 13.528 237.12 13.112C237.621 12.696 237.872 12.0827 237.872 11.272C237.872 10.4827 237.626 9.90133 237.135 9.528C236.645 9.15467 235.93 8.968 234.992 8.968H232.016V13.736H234.992ZM241.248 15V3.8H242.832V15H241.248ZM249.762 15.096C248.898 15.096 248.125 14.9093 247.442 14.536C246.77 14.1627 246.242 13.6507 245.858 13C245.474 12.3493 245.282 11.6027 245.282 10.76C245.282 9.91733 245.474 9.17067 245.858 8.52C246.242 7.86933 246.77 7.36267 247.442 7C248.125 6.62667 248.898 6.44 249.762 6.44C250.53 6.44 251.213 6.59467 251.81 6.904C252.418 7.20267 252.887 7.65067 253.218 8.248L252.05 9C251.773 8.584 251.431 8.28 251.026 8.088C250.631 7.88533 250.205 7.784 249.746 7.784C249.191 7.784 248.695 7.90667 248.258 8.152C247.821 8.39733 247.474 8.744 247.218 9.192C246.962 9.62933 246.834 10.152 246.834 10.76C246.834 11.368 246.962 11.896 247.218 12.344C247.474 12.792 247.821 13.1387 248.258 13.384C248.695 13.6293 249.191 13.752 249.746 13.752C250.205 13.752 250.631 13.656 251.026 13.464C251.431 13.2613 251.773 12.952 252.05 12.536L253.218 13.272C252.887 13.8587 252.418 14.312 251.81 14.632C251.213 14.9413 250.53 15.096 249.762 15.096ZM263.591 15V6.52H265.127V15H263.591ZM259.031 9.4C260.108 9.41067 260.924 9.656 261.479 10.136C262.044 10.616 262.327 11.2933 262.327 12.168C262.327 13.0853 262.017 13.7947 261.399 14.296C260.791 14.7867 259.916 15.0267 258.775 15.016L255.207 15V6.52H256.743V9.384L259.031 9.4ZM258.663 13.848C259.345 13.8587 259.868 13.72 260.231 13.432C260.593 13.144 260.775 12.7173 260.775 12.152C260.775 11.5973 260.593 11.192 260.231 10.936C259.879 10.68 259.356 10.5467 258.663 10.536L256.743 10.504V13.832L258.663 13.848ZM274.257 15L270.977 10.872L272.241 10.104L276.065 15H274.257ZM268.113 15V6.52H269.649V15H268.113ZM269.185 11.416V10.104H271.985V11.416H269.185ZM272.369 10.936L270.945 10.744L274.193 6.52H275.841L272.369 10.936ZM276.74 11.272V9.944H281.044V11.272H276.74ZM291.233 15L287.169 9.48L288.465 8.68L293.057 15H291.233ZM283.697 15V3.8H285.265V15H283.697ZM284.785 10.072V8.664H288.417V10.072H284.785ZM288.609 9.576L287.137 9.352L291.153 3.8H292.865L288.609 9.576ZM298.044 6.44C298.918 6.44 299.692 6.62133 300.364 6.984C301.036 7.34667 301.564 7.85867 301.948 8.52C302.342 9.17067 302.54 9.91733 302.54 10.76C302.54 11.6027 302.342 12.3493 301.948 13C301.564 13.6507 301.036 14.1627 300.364 14.536C299.692 14.9093 298.918 15.096 298.044 15.096C297.18 15.096 296.406 14.9093 295.724 14.536C295.052 14.1627 294.518 13.6507 294.124 13C293.74 12.3493 293.548 11.6027 293.548 10.76C293.548 9.91733 293.74 9.17067 294.124 8.52C294.518 7.85867 295.052 7.34667 295.724 6.984C296.406 6.62133 297.18 6.44 298.044 6.44ZM298.044 7.656C297.51 7.656 297.03 7.76267 296.604 7.976C296.188 8.18933 295.846 8.488 295.58 8.872C295.313 9.24533 295.137 9.69333 295.052 10.216H301.02C300.956 9.704 300.785 9.256 300.508 8.872C300.241 8.488 299.894 8.18933 299.468 7.976C299.052 7.76267 298.577 7.656 298.044 7.656ZM298.044 13.864C298.577 13.864 299.052 13.7573 299.468 13.544C299.894 13.3307 300.241 13.032 300.508 12.648C300.785 12.264 300.956 11.816 301.02 11.304H295.052C295.126 11.816 295.297 12.264 295.564 12.648C295.841 13.032 296.193 13.3307 296.62 13.544C297.046 13.7573 297.521 13.864 298.044 13.864ZM303.268 14.984L303.364 13.688C303.438 13.6987 303.508 13.7093 303.572 13.72C303.636 13.7307 303.694 13.736 303.748 13.736C304.089 13.736 304.356 13.6187 304.548 13.384C304.75 13.1493 304.9 12.84 304.996 12.456C305.092 12.0613 305.161 11.6187 305.204 11.128C305.246 10.6373 305.278 10.1467 305.299 9.656L305.444 6.52H311.956V15H310.42V7.416L310.788 7.864H306.436L306.788 7.4L306.676 9.752C306.644 10.4987 306.585 11.1973 306.5 11.848C306.414 12.4987 306.281 13.0693 306.1 13.56C305.929 14.0507 305.689 14.4347 305.38 14.712C305.081 14.9893 304.692 15.128 304.212 15.128C304.073 15.128 303.924 15.112 303.764 15.08C303.614 15.0587 303.449 15.0267 303.268 14.984ZM322.854 15.096C322.001 15.096 321.244 14.9093 320.582 14.536C319.921 14.1627 319.398 13.6507 319.014 13C318.63 12.3387 318.438 11.592 318.438 10.76C318.438 9.91733 318.63 9.17067 319.014 8.52C319.398 7.86933 319.921 7.36267 320.582 7C321.244 6.62667 322.001 6.44 322.854 6.44C323.697 6.44 324.449 6.62667 325.11 7C325.782 7.36267 326.305 7.86933 326.678 8.52C327.062 9.16 327.254 9.90667 327.254 10.76C327.254 11.6027 327.062 12.3493 326.678 13C326.305 13.6507 325.782 14.1627 325.11 14.536C324.449 14.9093 323.697 15.096 322.854 15.096ZM322.854 13.752C323.398 13.752 323.884 13.6293 324.31 13.384C324.748 13.1387 325.089 12.792 325.334 12.344C325.58 11.8853 325.702 11.3573 325.702 10.76C325.702 10.152 325.58 9.62933 325.334 9.192C325.089 8.744 324.748 8.39733 324.31 8.152C323.884 7.90667 323.398 7.784 322.854 7.784C322.31 7.784 321.825 7.90667 321.398 8.152C320.972 8.39733 320.63 8.744 320.374 9.192C320.118 9.62933 319.99 10.152 319.99 10.76C319.99 11.3573 320.118 11.8853 320.374 12.344C320.63 12.792 320.972 13.1387 321.398 13.384C321.825 13.6293 322.31 13.752 322.854 13.752ZM333.392 15.128C332.688 15.128 332.064 15.016 331.52 14.792C330.987 14.568 330.528 14.2373 330.144 13.8C329.76 13.352 329.467 12.792 329.264 12.12C329.072 11.4373 328.976 10.6373 328.976 9.72C328.976 8.99467 329.04 8.344 329.168 7.768C329.296 7.192 329.478 6.68 329.712 6.232C329.958 5.784 330.256 5.39467 330.608 5.064C330.971 4.73333 331.376 4.46133 331.824 4.248C332.283 4.024 332.784 3.85333 333.328 3.736L337.2 2.872L337.424 4.296L333.856 5.064C333.643 5.10667 333.387 5.17067 333.088 5.256C332.79 5.34133 332.486 5.47467 332.176 5.656C331.867 5.82667 331.579 6.06667 331.312 6.376C331.046 6.68533 330.832 7.09067 330.672 7.592C330.512 8.08267 330.432 8.69067 330.432 9.416C330.432 9.61867 330.438 9.77333 330.448 9.88C330.459 9.98667 330.47 10.0933 330.48 10.2C330.502 10.3067 330.518 10.4667 330.528 10.68L329.888 10.024C330.059 9.43733 330.331 8.92533 330.704 8.488C331.078 8.05067 331.526 7.71467 332.048 7.48C332.582 7.23467 333.163 7.112 333.792 7.112C334.582 7.112 335.28 7.28267 335.888 7.624C336.507 7.96533 336.992 8.43467 337.344 9.032C337.696 9.62933 337.872 10.312 337.872 11.08C337.872 11.8587 337.686 12.5573 337.312 13.176C336.95 13.784 336.432 14.264 335.76 14.616C335.088 14.9573 334.299 15.128 333.392 15.128ZM333.536 13.848C334.08 13.848 334.56 13.7307 334.976 13.496C335.392 13.2507 335.718 12.9253 335.952 12.52C336.187 12.104 336.304 11.64 336.304 11.128C336.304 10.616 336.187 10.1627 335.952 9.768C335.718 9.37333 335.392 9.064 334.976 8.84C334.56 8.60533 334.07 8.488 333.504 8.488C332.971 8.488 332.491 8.6 332.064 8.824C331.638 9.03733 331.307 9.34133 331.072 9.736C330.838 10.12 330.72 10.568 330.72 11.08C330.72 11.592 330.838 12.0613 331.072 12.488C331.318 12.904 331.648 13.2347 332.064 13.48C332.491 13.7253 332.982 13.848 333.536 13.848ZM338.596 14.984L338.692 13.688C338.766 13.6987 338.836 13.7093 338.9 13.72C338.964 13.7307 339.022 13.736 339.076 13.736C339.417 13.736 339.684 13.6187 339.876 13.384C340.078 13.1493 340.228 12.84 340.324 12.456C340.42 12.0613 340.489 11.6187 340.532 11.128C340.574 10.6373 340.606 10.1467 340.628 9.656L340.772 6.52H347.284V15H345.748V7.416L346.116 7.864H341.764L342.116 7.4L342.004 9.752C341.972 10.4987 341.913 11.1973 341.828 11.848C341.742 12.4987 341.609 13.0693 341.428 13.56C341.257 14.0507 341.017 14.4347 340.708 14.712C340.409 14.9893 340.02 15.128 339.54 15.128C339.401 15.128 339.252 15.112 339.092 15.08C338.942 15.0587 338.777 15.0267 338.596 14.984ZM350.686 18.2C350.28 18.2 349.886 18.1307 349.502 17.992C349.118 17.864 348.787 17.672 348.51 17.416L349.166 16.264C349.379 16.4667 349.614 16.6213 349.87 16.728C350.126 16.8347 350.398 16.888 350.686 16.888C351.059 16.888 351.368 16.792 351.614 16.6C351.859 16.408 352.088 16.0667 352.302 15.576L352.83 14.408L352.99 14.216L356.318 6.52H357.822L353.71 15.848C353.464 16.4453 353.187 16.9147 352.878 17.256C352.579 17.5973 352.248 17.8373 351.886 17.976C351.523 18.1253 351.123 18.2 350.686 18.2ZM352.702 15.272L348.83 6.52H350.43L353.726 14.072L352.702 15.272ZM362.856 15.096C361.992 15.096 361.219 14.9093 360.536 14.536C359.864 14.1627 359.336 13.6507 358.952 13C358.568 12.3493 358.376 11.6027 358.376 10.76C358.376 9.91733 358.568 9.17067 358.952 8.52C359.336 7.86933 359.864 7.36267 360.536 7C361.219 6.62667 361.992 6.44 362.856 6.44C363.624 6.44 364.307 6.59467 364.904 6.904C365.512 7.20267 365.981 7.65067 366.312 8.248L365.144 9C364.867 8.584 364.525 8.28 364.12 8.088C363.725 7.88533 363.299 7.784 362.84 7.784C362.285 7.784 361.789 7.90667 361.352 8.152C360.915 8.39733 360.568 8.744 360.312 9.192C360.056 9.62933 359.928 10.152 359.928 10.76C359.928 11.368 360.056 11.896 360.312 12.344C360.568 12.792 360.915 13.1387 361.352 13.384C361.789 13.6293 362.285 13.752 362.84 13.752C363.299 13.752 363.725 13.656 364.12 13.464C364.525 13.2613 364.867 12.952 365.144 12.536L366.312 13.272C365.981 13.8587 365.512 14.312 364.904 14.632C364.307 14.9413 363.624 15.096 362.856 15.096ZM368.623 18.2C368.218 18.2 367.823 18.1307 367.439 17.992C367.055 17.864 366.724 17.672 366.447 17.416L367.103 16.264C367.316 16.4667 367.551 16.6213 367.807 16.728C368.063 16.8347 368.335 16.888 368.623 16.888C368.996 16.888 369.306 16.792 369.551 16.6C369.796 16.408 370.026 16.0667 370.239 15.576L370.767 14.408L370.927 14.216L374.255 6.52H375.759L371.647 15.848C371.402 16.4453 371.124 16.9147 370.815 17.256C370.516 17.5973 370.186 17.8373 369.823 17.976C369.46 18.1253 369.06 18.2 368.623 18.2ZM370.639 15.272L366.767 6.52H368.367L371.663 14.072L370.639 15.272ZM376.161 17.368L376.961 14.136L377.169 15.064C376.859 15.064 376.598 14.968 376.385 14.776C376.182 14.584 376.081 14.3227 376.081 13.992C376.081 13.672 376.182 13.4107 376.385 13.208C376.598 13.0053 376.854 12.904 377.153 12.904C377.462 12.904 377.713 13.0107 377.905 13.224C378.097 13.4267 378.193 13.6827 378.193 13.992C378.193 14.0987 378.182 14.2053 378.161 14.312C378.15 14.408 378.123 14.5253 378.081 14.664C378.049 14.792 377.995 14.952 377.921 15.144L377.169 17.368H376.161ZM35.656 43.704C36.9787 43.704 37.9973 44.0027 38.712 44.6C39.4267 45.1867 39.784 46.0667 39.784 47.24C39.784 48.4773 39.3947 49.416 38.616 50.056C37.848 50.6853 36.7653 51 35.368 51H30.744V39.8H32.328V43.704H35.656ZM35.304 49.736C36.232 49.736 36.9413 49.528 37.432 49.112C37.9333 48.696 38.184 48.0827 38.184 47.272C38.184 46.4827 37.9387 45.9013 37.448 45.528C36.9573 45.1547 36.2427 44.968 35.304 44.968H32.328V49.736H35.304ZM41.56 51V39.8H43.144V51H41.56ZM50.0746 51.096C49.2106 51.096 48.4373 50.9093 47.7546 50.536C47.0826 50.1627 46.5546 49.6507 46.1706 49C45.7866 48.3493 45.5946 47.6027 45.5946 46.76C45.5946 45.9173 45.7866 45.1707 46.1706 44.52C46.5546 43.8693 47.0826 43.3627 47.7546 43C48.4373 42.6267 49.2106 42.44 50.0746 42.44C50.8426 42.44 51.5253 42.5947 52.1226 42.904C52.7306 43.2027 53.2 43.6507 53.5306 44.248L52.3626 45C52.0853 44.584 51.744 44.28 51.3386 44.088C50.944 43.8853 50.5173 43.784 50.0586 43.784C49.504 43.784 49.008 43.9067 48.5706 44.152C48.1333 44.3973 47.7866 44.744 47.5306 45.192C47.2746 45.6293 47.1466 46.152 47.1466 46.76C47.1466 47.368 47.2746 47.896 47.5306 48.344C47.7866 48.792 48.1333 49.1387 48.5706 49.384C49.008 49.6293 49.504 49.752 50.0586 49.752C50.5173 49.752 50.944 49.656 51.3386 49.464C51.744 49.2613 52.0853 48.952 52.3626 48.536L53.5306 49.272C53.2 49.8587 52.7306 50.312 52.1226 50.632C51.5253 50.9413 50.8426 51.096 50.0746 51.096ZM63.9033 51V42.52H65.4393V51H63.9033ZM59.3433 45.4C60.4206 45.4107 61.2366 45.656 61.7913 46.136C62.3566 46.616 62.6393 47.2933 62.6393 48.168C62.6393 49.0853 62.3299 49.7947 61.7113 50.296C61.1033 50.7867 60.2286 51.0267 59.0873 51.016L55.5193 51V42.52H57.0553V45.384L59.3433 45.4ZM58.9753 49.848C59.6579 49.8587 60.1806 49.72 60.5433 49.432C60.9059 49.144 61.0873 48.7173 61.0873 48.152C61.0873 47.5973 60.9059 47.192 60.5433 46.936C60.1913 46.68 59.6686 46.5467 58.9753 46.536L57.0553 46.504V49.832L58.9753 49.848ZM74.5695 51L71.2895 46.872L72.5535 46.104L76.3775 51H74.5695ZM68.4255 51V42.52H69.9615V51H68.4255ZM69.4975 47.416V46.104H72.2975V47.416H69.4975ZM72.6815 46.936L71.2575 46.744L74.5055 42.52H76.1535L72.6815 46.936ZM77.0526 47.272V45.944H81.3566V47.272H77.0526ZM91.5456 51L87.4816 45.48L88.7776 44.68L93.3696 51H91.5456ZM84.0096 51V39.8H85.5776V51H84.0096ZM85.0976 46.072V44.664H88.7296V46.072H85.0976ZM88.9216 45.576L87.4496 45.352L91.4656 39.8H93.1776L88.9216 45.576ZM98.3563 42.44C99.2309 42.44 100.004 42.6213 100.676 42.984C101.348 43.3467 101.876 43.8587 102.26 44.52C102.655 45.1707 102.852 45.9173 102.852 46.76C102.852 47.6027 102.655 48.3493 102.26 49C101.876 49.6507 101.348 50.1627 100.676 50.536C100.004 50.9093 99.2309 51.096 98.3563 51.096C97.4923 51.096 96.7189 50.9093 96.0363 50.536C95.3643 50.1627 94.8309 49.6507 94.4363 49C94.0523 48.3493 93.8603 47.6027 93.8603 46.76C93.8603 45.9173 94.0523 45.1707 94.4363 44.52C94.8309 43.8587 95.3643 43.3467 96.0363 42.984C96.7189 42.6213 97.4923 42.44 98.3563 42.44ZM98.3563 43.656C97.8229 43.656 97.3429 43.7627 96.9163 43.976C96.5003 44.1893 96.1589 44.488 95.8923 44.872C95.6256 45.2453 95.4496 45.6933 95.3643 46.216H101.332C101.268 45.704 101.098 45.256 100.82 44.872C100.554 44.488 100.207 44.1893 99.7803 43.976C99.3643 43.7627 98.8896 43.656 98.3563 43.656ZM98.3563 49.864C98.8896 49.864 99.3643 49.7573 99.7803 49.544C100.207 49.3307 100.554 49.032 100.82 48.648C101.098 48.264 101.268 47.816 101.332 47.304H95.3643C95.4389 47.816 95.6096 48.264 95.8763 48.648C96.1536 49.032 96.5056 49.3307 96.9323 49.544C97.3589 49.7573 97.8336 49.864 98.3563 49.864ZM103.58 50.984L103.676 49.688C103.751 49.6987 103.82 49.7093 103.884 49.72C103.948 49.7307 104.007 49.736 104.06 49.736C104.401 49.736 104.668 49.6187 104.86 49.384C105.063 49.1493 105.212 48.84 105.308 48.456C105.404 48.0613 105.473 47.6187 105.516 47.128C105.559 46.6373 105.591 46.1467 105.612 45.656L105.756 42.52H112.268V51H110.732V43.416L111.1 43.864H106.748L107.1 43.4L106.988 45.752C106.956 46.4987 106.897 47.1973 106.812 47.848C106.727 48.4987 106.593 49.0693 106.412 49.56C106.241 50.0507 106.001 50.4347 105.692 50.712C105.393 50.9893 105.004 51.128 104.524 51.128C104.385 51.128 104.236 51.112 104.076 51.08C103.927 51.0587 103.761 51.0267 103.58 50.984ZM128.328 51.096C127.624 51.096 126.978 50.936 126.392 50.616C125.816 50.2853 125.352 49.8 125 49.16C124.658 48.52 124.488 47.72 124.488 46.76C124.488 45.8 124.653 45 124.984 44.36C125.325 43.72 125.784 43.24 126.36 42.92C126.946 42.6 127.602 42.44 128.328 42.44C129.16 42.44 129.896 42.6213 130.536 42.984C131.176 43.3467 131.682 43.8533 132.056 44.504C132.429 45.144 132.616 45.896 132.616 46.76C132.616 47.624 132.429 48.3813 132.056 49.032C131.682 49.6827 131.176 50.1893 130.536 50.552C129.896 50.9147 129.16 51.096 128.328 51.096ZM123.832 54.104V42.52H125.304V44.808L125.208 46.776L125.368 48.744V54.104H123.832ZM128.2 49.752C128.744 49.752 129.229 49.6293 129.656 49.384C130.093 49.1387 130.434 48.792 130.68 48.344C130.936 47.8853 131.064 47.3573 131.064 46.76C131.064 46.152 130.936 45.6293 130.68 45.192C130.434 44.744 130.093 44.3973 129.656 44.152C129.229 43.9067 128.744 43.784 128.2 43.784C127.666 43.784 127.181 43.9067 126.744 44.152C126.317 44.3973 125.976 44.744 125.72 45.192C125.474 45.6293 125.352 46.152 125.352 46.76C125.352 47.3573 125.474 47.8853 125.72 48.344C125.976 48.792 126.317 49.1387 126.744 49.384C127.181 49.6293 127.666 49.752 128.2 49.752ZM139.969 51V49.208L139.889 48.872V45.816C139.889 45.1653 139.697 44.664 139.313 44.312C138.94 43.9493 138.375 43.768 137.617 43.768C137.116 43.768 136.625 43.8533 136.145 44.024C135.665 44.184 135.26 44.4027 134.929 44.68L134.289 43.528C134.727 43.176 135.249 42.9093 135.857 42.728C136.476 42.536 137.121 42.44 137.793 42.44C138.956 42.44 139.852 42.7227 140.481 43.288C141.111 43.8533 141.425 44.7173 141.425 45.88V51H139.969ZM137.185 51.096C136.556 51.096 136.001 50.9893 135.521 50.776C135.052 50.5627 134.689 50.2693 134.433 49.896C134.177 49.512 134.049 49.08 134.049 48.6C134.049 48.1413 134.156 47.7253 134.369 47.352C134.593 46.9787 134.951 46.68 135.441 46.456C135.943 46.232 136.615 46.12 137.457 46.12H140.145V47.224H137.521C136.753 47.224 136.236 47.352 135.969 47.608C135.703 47.864 135.569 48.1733 135.569 48.536C135.569 48.952 135.735 49.288 136.065 49.544C136.396 49.7893 136.855 49.912 137.441 49.912C138.017 49.912 138.519 49.784 138.945 49.528C139.383 49.272 139.697 48.8987 139.889 48.408L140.193 49.464C139.991 49.9653 139.633 50.3653 139.121 50.664C138.609 50.952 137.964 51.096 137.185 51.096ZM144.191 51V42.52H145.727V48.696L150.927 42.52H152.319V51H150.783V44.824L145.599 51H144.191ZM148.159 41.416C147.38 41.416 146.767 41.2293 146.319 40.856C145.882 40.472 145.658 39.9227 145.647 39.208H146.687C146.698 39.6133 146.831 39.9333 147.087 40.168C147.354 40.4027 147.706 40.52 148.143 40.52C148.58 40.52 148.932 40.4027 149.199 40.168C149.466 39.9333 149.604 39.6133 149.615 39.208H150.687C150.676 39.9227 150.447 40.472 149.999 40.856C149.551 41.2293 148.938 41.416 148.159 41.416ZM158.933 51.096C158.079 51.096 157.322 50.9093 156.661 50.536C155.999 50.1627 155.477 49.6507 155.093 49C154.709 48.3387 154.517 47.592 154.517 46.76C154.517 45.9173 154.709 45.1707 155.093 44.52C155.477 43.8693 155.999 43.3627 156.661 43C157.322 42.6267 158.079 42.44 158.933 42.44C159.775 42.44 160.527 42.6267 161.189 43C161.861 43.3627 162.383 43.8693 162.757 44.52C163.141 45.16 163.333 45.9067 163.333 46.76C163.333 47.6027 163.141 48.3493 162.757 49C162.383 49.6507 161.861 50.1627 161.189 50.536C160.527 50.9093 159.775 51.096 158.933 51.096ZM158.933 49.752C159.477 49.752 159.962 49.6293 160.389 49.384C160.826 49.1387 161.167 48.792 161.413 48.344C161.658 47.8853 161.781 47.3573 161.781 46.76C161.781 46.152 161.658 45.6293 161.413 45.192C161.167 44.744 160.826 44.3973 160.389 44.152C159.962 43.9067 159.477 43.784 158.933 43.784C158.389 43.784 157.903 43.9067 157.477 44.152C157.05 44.3973 156.709 44.744 156.453 45.192C156.197 45.6293 156.069 46.152 156.069 46.76C156.069 47.3573 156.197 47.8853 156.453 48.344C156.709 48.792 157.05 49.1387 157.477 49.384C157.903 49.6293 158.389 49.752 158.933 49.752ZM165.551 51V42.52H167.087V46.12H171.919V42.52H173.455V51H171.919V47.448H167.087V51H165.551ZM176.873 54.2C176.468 54.2 176.073 54.1307 175.689 53.992C175.305 53.864 174.974 53.672 174.697 53.416L175.353 52.264C175.566 52.4667 175.801 52.6213 176.057 52.728C176.313 52.8347 176.585 52.888 176.873 52.888C177.246 52.888 177.556 52.792 177.801 52.6C178.046 52.408 178.276 52.0667 178.489 51.576L179.017 50.408L179.177 50.216L182.505 42.52H184.009L179.897 51.848C179.652 52.4453 179.374 52.9147 179.065 53.256C178.766 53.5973 178.436 53.8373 178.073 53.976C177.71 54.1253 177.31 54.2 176.873 54.2ZM178.889 51.272L175.017 42.52H176.617L179.913 50.072L178.889 51.272ZM184.411 53.368L185.211 50.136L185.419 51.064C185.109 51.064 184.848 50.968 184.635 50.776C184.432 50.584 184.331 50.3227 184.331 49.992C184.331 49.672 184.432 49.4107 184.635 49.208C184.848 49.0053 185.104 48.904 185.403 48.904C185.712 48.904 185.963 49.0107 186.155 49.224C186.347 49.4267 186.443 49.6827 186.443 49.992C186.443 50.0987 186.432 50.2053 186.411 50.312C186.4 50.408 186.373 50.5253 186.331 50.664C186.299 50.792 186.245 50.952 186.171 51.144L185.419 53.368H184.411ZM195.516 51V40.776L195.916 41.192H191.692V39.8H200.924V41.192H196.7L197.084 40.776V51H195.516ZM205.37 51.096C204.517 51.096 203.759 50.9093 203.098 50.536C202.437 50.1627 201.914 49.6507 201.53 49C201.146 48.3387 200.954 47.592 200.954 46.76C200.954 45.9173 201.146 45.1707 201.53 44.52C201.914 43.8693 202.437 43.3627 203.098 43C203.759 42.6267 204.517 42.44 205.37 42.44C206.213 42.44 206.965 42.6267 207.626 43C208.298 43.3627 208.821 43.8693 209.194 44.52C209.578 45.16 209.77 45.9067 209.77 46.76C209.77 47.6027 209.578 48.3493 209.194 49C208.821 49.6507 208.298 50.1627 207.626 50.536C206.965 50.9093 206.213 51.096 205.37 51.096ZM205.37 49.752C205.914 49.752 206.399 49.6293 206.826 49.384C207.263 49.1387 207.605 48.792 207.85 48.344C208.095 47.8853 208.218 47.3573 208.218 46.76C208.218 46.152 208.095 45.6293 207.85 45.192C207.605 44.744 207.263 44.3973 206.826 44.152C206.399 43.9067 205.914 43.784 205.37 43.784C204.826 43.784 204.341 43.9067 203.914 44.152C203.487 44.3973 203.146 44.744 202.89 45.192C202.634 45.6293 202.506 46.152 202.506 46.76C202.506 47.3573 202.634 47.8853 202.89 48.344C203.146 48.792 203.487 49.1387 203.914 49.384C204.341 49.6293 204.826 49.752 205.37 49.752ZM216.484 51.096C215.78 51.096 215.135 50.936 214.548 50.616C213.972 50.2853 213.508 49.8 213.156 49.16C212.815 48.52 212.644 47.72 212.644 46.76C212.644 45.8 212.809 45 213.14 44.36C213.481 43.72 213.94 43.24 214.516 42.92C215.103 42.6 215.759 42.44 216.484 42.44C217.316 42.44 218.052 42.6213 218.692 42.984C219.332 43.3467 219.839 43.8533 220.212 44.504C220.585 45.144 220.772 45.896 220.772 46.76C220.772 47.624 220.585 48.3813 220.212 49.032C219.839 49.6827 219.332 50.1893 218.692 50.552C218.052 50.9147 217.316 51.096 216.484 51.096ZM211.988 54.104V42.52H213.46V44.808L213.364 46.776L213.524 48.744V54.104H211.988ZM216.356 49.752C216.9 49.752 217.385 49.6293 217.812 49.384C218.249 49.1387 218.591 48.792 218.836 48.344C219.092 47.8853 219.22 47.3573 219.22 46.76C219.22 46.152 219.092 45.6293 218.836 45.192C218.591 44.744 218.249 44.3973 217.812 44.152C217.385 43.9067 216.9 43.784 216.356 43.784C215.823 43.784 215.337 43.9067 214.9 44.152C214.473 44.3973 214.132 44.744 213.876 45.192C213.631 45.6293 213.508 46.152 213.508 46.76C213.508 47.3573 213.631 47.8853 213.876 48.344C214.132 48.792 214.473 49.1387 214.9 49.384C215.337 49.6293 215.823 49.752 216.356 49.752ZM223.201 54.2C222.796 54.2 222.401 54.1307 222.017 53.992C221.633 53.864 221.303 53.672 221.025 53.416L221.681 52.264C221.895 52.4667 222.129 52.6213 222.385 52.728C222.641 52.8347 222.913 52.888 223.201 52.888C223.575 52.888 223.884 52.792 224.129 52.6C224.375 52.408 224.604 52.0667 224.817 51.576L225.345 50.408L225.505 50.216L228.833 42.52H230.337L226.225 51.848C225.98 52.4453 225.703 52.9147 225.393 53.256C225.095 53.5973 224.764 53.8373 224.401 53.976C224.039 54.1253 223.639 54.2 223.201 54.2ZM225.217 51.272L221.345 42.52H222.945L226.241 50.072L225.217 51.272ZM231.131 47.272V45.944H235.435V47.272H231.131ZM236.255 51L241.327 39.8H242.911L247.999 51H246.319L241.791 40.696H242.431L237.903 51H236.255ZM238.414 48.2L238.847 46.92H245.151L245.615 48.2H238.414ZM249.676 51V42.52H251.212V48.696L256.411 42.52H257.804V51H256.267V44.824L251.084 51H249.676ZM253.644 41.416C252.865 41.416 252.252 41.2293 251.804 40.856C251.366 40.472 251.142 39.9227 251.132 39.208H252.172C252.182 39.6133 252.316 39.9333 252.572 40.168C252.838 40.4027 253.19 40.52 253.628 40.52C254.065 40.52 254.417 40.4027 254.684 40.168C254.95 39.9333 255.089 39.6133 255.1 39.208H256.172C256.161 39.9227 255.932 40.472 255.484 40.856C255.036 41.2293 254.422 41.416 253.644 41.416ZM260.785 51V42.52H267.025V43.864H261.953L262.321 43.512V51H260.785ZM276.981 51V42.52H278.517V51H276.981ZM272.421 45.4C273.499 45.4107 274.315 45.656 274.869 46.136C275.435 46.616 275.717 47.2933 275.717 48.168C275.717 49.0853 275.408 49.7947 274.789 50.296C274.181 50.7867 273.307 51.0267 272.165 51.016L268.597 51V42.52H270.133V45.384L272.421 45.4ZM272.053 49.848C272.736 49.8587 273.259 49.72 273.621 49.432C273.984 49.144 274.165 48.7173 274.165 48.152C274.165 47.5973 273.984 47.192 273.621 46.936C273.269 46.68 272.747 46.5467 272.053 46.536L270.133 46.504V49.832L272.053 49.848ZM286 51.096C285.296 51.096 284.65 50.936 284.064 50.616C283.488 50.2853 283.024 49.8 282.672 49.16C282.33 48.52 282.16 47.72 282.16 46.76C282.16 45.8 282.325 45 282.656 44.36C282.997 43.72 283.456 43.24 284.032 42.92C284.618 42.6 285.274 42.44 286 42.44C286.832 42.44 287.568 42.6213 288.208 42.984C288.848 43.3467 289.354 43.8533 289.728 44.504C290.101 45.144 290.288 45.896 290.288 46.76C290.288 47.624 290.101 48.3813 289.728 49.032C289.354 49.6827 288.848 50.1893 288.208 50.552C287.568 50.9147 286.832 51.096 286 51.096ZM281.504 54.104V42.52H282.976V44.808L282.88 46.776L283.04 48.744V54.104H281.504ZM285.872 49.752C286.416 49.752 286.901 49.6293 287.328 49.384C287.765 49.1387 288.106 48.792 288.352 48.344C288.608 47.8853 288.736 47.3573 288.736 46.76C288.736 46.152 288.608 45.6293 288.352 45.192C288.106 44.744 287.765 44.3973 287.328 44.152C286.901 43.9067 286.416 43.784 285.872 43.784C285.338 43.784 284.853 43.9067 284.416 44.152C283.989 44.3973 283.648 44.744 283.392 45.192C283.146 45.6293 283.024 46.152 283.024 46.76C283.024 47.3573 283.146 47.8853 283.392 48.344C283.648 48.792 283.989 49.1387 284.416 49.384C284.853 49.6293 285.338 49.752 285.872 49.752ZM302.016 51V49.208L301.936 48.872V45.816C301.936 45.1653 301.744 44.664 301.36 44.312C300.987 43.9493 300.421 43.768 299.664 43.768C299.163 43.768 298.672 43.8533 298.192 44.024C297.712 44.184 297.307 44.4027 296.976 44.68L296.336 43.528C296.773 43.176 297.296 42.9093 297.904 42.728C298.523 42.536 299.168 42.44 299.84 42.44C301.003 42.44 301.899 42.7227 302.528 43.288C303.157 43.8533 303.472 44.7173 303.472 45.88V51H302.016ZM299.232 51.096C298.603 51.096 298.048 50.9893 297.568 50.776C297.099 50.5627 296.736 50.2693 296.48 49.896C296.224 49.512 296.096 49.08 296.096 48.6C296.096 48.1413 296.203 47.7253 296.416 47.352C296.64 46.9787 296.997 46.68 297.488 46.456C297.989 46.232 298.661 46.12 299.504 46.12H302.192V47.224H299.568C298.8 47.224 298.283 47.352 298.016 47.608C297.749 47.864 297.616 48.1733 297.616 48.536C297.616 48.952 297.781 49.288 298.112 49.544C298.443 49.7893 298.901 49.912 299.488 49.912C300.064 49.912 300.565 49.784 300.992 49.528C301.429 49.272 301.744 48.8987 301.936 48.408L302.24 49.464C302.037 49.9653 301.68 50.3653 301.168 50.664C300.656 50.952 300.011 51.096 299.232 51.096ZM306.238 51V42.52H307.774V48.696L312.974 42.52H314.366V51H312.83V44.824L307.646 51H306.238ZM310.206 41.416C309.427 41.416 308.814 41.2293 308.366 40.856C307.929 40.472 307.705 39.9227 307.694 39.208H308.734C308.745 39.6133 308.878 39.9333 309.134 40.168C309.401 40.4027 309.753 40.52 310.19 40.52C310.627 40.52 310.979 40.4027 311.246 40.168C311.513 39.9333 311.651 39.6133 311.662 39.208H312.734C312.723 39.9227 312.494 40.472 312.046 40.856C311.598 41.2293 310.985 41.416 310.206 41.416ZM325.731 51V42.52H327.267V51H325.731ZM321.171 45.4C322.249 45.4107 323.065 45.656 323.619 46.136C324.185 46.616 324.467 47.2933 324.467 48.168C324.467 49.0853 324.158 49.7947 323.539 50.296C322.931 50.7867 322.057 51.0267 320.915 51.016L317.347 51V42.52H318.883V45.384L321.171 45.4ZM320.803 49.848C321.486 49.8587 322.009 49.72 322.371 49.432C322.734 49.144 322.915 48.7173 322.915 48.152C322.915 47.5973 322.734 47.192 322.371 46.936C322.019 46.68 321.497 46.5467 320.803 46.536L318.883 46.504V49.832L320.803 49.848ZM328.846 50.984L328.942 49.688C329.016 49.6987 329.086 49.7093 329.15 49.72C329.214 49.7307 329.272 49.736 329.326 49.736C329.667 49.736 329.934 49.6187 330.126 49.384C330.328 49.1493 330.478 48.84 330.574 48.456C330.67 48.0613 330.739 47.6187 330.782 47.128C330.824 46.6373 330.856 46.1467 330.878 45.656L331.022 42.52H337.534V51H335.998V43.416L336.366 43.864H332.014L332.366 43.4L332.254 45.752C332.222 46.4987 332.163 47.1973 332.078 47.848C331.992 48.4987 331.859 49.0693 331.678 49.56C331.507 50.0507 331.267 50.4347 330.958 50.712C330.659 50.9893 330.27 51.128 329.79 51.128C329.651 51.128 329.502 51.112 329.342 51.08C329.192 51.0587 329.027 51.0267 328.846 50.984ZM348.888 51V42.52H350.424V51H348.888ZM344.328 45.4C345.405 45.4107 346.221 45.656 346.776 46.136C347.341 46.616 347.624 47.2933 347.624 48.168C347.624 49.0853 347.314 49.7947 346.696 50.296C346.088 50.7867 345.213 51.0267 344.072 51.016L340.504 51V42.52H342.04V45.384L344.328 45.4ZM343.96 49.848C344.642 49.8587 345.165 49.72 345.528 49.432C345.89 49.144 346.072 48.7173 346.072 48.152C346.072 47.5973 345.89 47.192 345.528 46.936C345.176 46.68 344.653 46.5467 343.96 46.536L342.04 46.504V49.832L343.96 49.848ZM352.77 53.368L353.57 50.136L353.778 51.064C353.469 51.064 353.207 50.968 352.994 50.776C352.791 50.584 352.69 50.3227 352.69 49.992C352.69 49.672 352.791 49.4107 352.994 49.208C353.207 49.0053 353.463 48.904 353.762 48.904C354.071 48.904 354.322 49.0107 354.514 49.224C354.706 49.4267 354.802 49.6827 354.802 49.992C354.802 50.0987 354.791 50.2053 354.77 50.312C354.759 50.408 354.733 50.5253 354.69 50.664C354.658 50.792 354.605 50.952 354.53 51.144L353.778 53.368H352.77ZM38.28 87L34.216 81.48L35.512 80.68L40.104 87H38.28ZM30.744 87V75.8H32.312V87H30.744ZM31.832 82.072V80.664H35.464V82.072H31.832ZM35.656 81.576L34.184 81.352L38.2 75.8H39.912L35.656 81.576ZM45.1546 87.096C44.248 87.096 43.448 86.9093 42.7546 86.536C42.072 86.1627 41.5386 85.6507 41.1546 85C40.7813 84.3493 40.5946 83.6027 40.5946 82.76C40.5946 81.9173 40.776 81.1707 41.1386 80.52C41.512 79.8693 42.0186 79.3627 42.6586 79C43.3093 78.6267 44.04 78.44 44.8506 78.44C45.672 78.44 46.3973 78.6213 47.0266 78.984C47.656 79.3467 48.1466 79.8587 48.4986 80.52C48.8613 81.1707 49.0426 81.9333 49.0426 82.808C49.0426 82.872 49.0373 82.9467 49.0266 83.032C49.0266 83.1173 49.0213 83.1973 49.0106 83.272H41.7946V82.168H48.2106L47.5866 82.552C47.5973 82.008 47.4853 81.5227 47.2506 81.096C47.016 80.6693 46.6906 80.3387 46.2746 80.104C45.8693 79.8587 45.3946 79.736 44.8506 79.736C44.3173 79.736 43.8426 79.8587 43.4266 80.104C43.0106 80.3387 42.6853 80.6747 42.4506 81.112C42.216 81.5387 42.0986 82.0293 42.0986 82.584V82.84C42.0986 83.4053 42.2266 83.912 42.4826 84.36C42.7493 84.7973 43.1173 85.1387 43.5866 85.384C44.056 85.6293 44.5946 85.752 45.2026 85.752C45.704 85.752 46.1573 85.6667 46.5626 85.496C46.9786 85.3253 47.3413 85.0693 47.6506 84.728L48.4986 85.72C48.1146 86.168 47.6346 86.5093 47.0586 86.744C46.4933 86.9787 45.8586 87.096 45.1546 87.096ZM51.4255 87V78.52H52.9615V82.12H57.7935V78.52H59.3295V87H57.7935V83.448H52.9615V87H51.4255ZM63.9961 87V79.464L64.3801 79.864H60.8921V78.52H68.6361V79.864H65.1641L65.5321 79.464V87H63.9961ZM70.2068 87V78.52H71.7428V84.696L76.9427 78.52H78.3348V87H76.7987V80.824L71.6148 87H70.2068ZM85.2361 87.128C84.5321 87.128 83.9081 87.016 83.3641 86.792C82.8308 86.568 82.3721 86.2373 81.9881 85.8C81.6041 85.352 81.3108 84.792 81.1081 84.12C80.9161 83.4373 80.8201 82.6373 80.8201 81.72C80.8201 80.9947 80.8841 80.344 81.0121 79.768C81.1401 79.192 81.3215 78.68 81.5561 78.232C81.8015 77.784 82.1001 77.3947 82.4521 77.064C82.8148 76.7333 83.2201 76.4613 83.6681 76.248C84.1268 76.024 84.6281 75.8533 85.1721 75.736L89.0441 74.872L89.2681 76.296L85.7001 77.064C85.4868 77.1067 85.2308 77.1707 84.9321 77.256C84.6335 77.3413 84.3295 77.4747 84.0201 77.656C83.7108 77.8267 83.4228 78.0667 83.1561 78.376C82.8895 78.6853 82.6761 79.0907 82.5161 79.592C82.3561 80.0827 82.2761 80.6907 82.2761 81.416C82.2761 81.6187 82.2815 81.7733 82.2921 81.88C82.3028 81.9867 82.3135 82.0933 82.3241 82.2C82.3455 82.3067 82.3615 82.4667 82.3721 82.68L81.7321 82.024C81.9028 81.4373 82.1748 80.9253 82.5481 80.488C82.9215 80.0507 83.3695 79.7147 83.8921 79.48C84.4255 79.2347 85.0068 79.112 85.6361 79.112C86.4255 79.112 87.1241 79.2827 87.7321 79.624C88.3508 79.9653 88.8361 80.4347 89.1881 81.032C89.5401 81.6293 89.7161 82.312 89.7161 83.08C89.7161 83.8587 89.5295 84.5573 89.1561 85.176C88.7935 85.784 88.2761 86.264 87.6041 86.616C86.9321 86.9573 86.1428 87.128 85.2361 87.128ZM85.3801 85.848C85.9241 85.848 86.4041 85.7307 86.8201 85.496C87.2361 85.2507 87.5615 84.9253 87.7961 84.52C88.0308 84.104 88.1481 83.64 88.1481 83.128C88.1481 82.616 88.0308 82.1627 87.7961 81.768C87.5615 81.3733 87.2361 81.064 86.8201 80.84C86.4041 80.6053 85.9135 80.488 85.3481 80.488C84.8148 80.488 84.3348 80.6 83.9081 80.824C83.4815 81.0373 83.1508 81.3413 82.9161 81.736C82.6815 82.12 82.5641 82.568 82.5641 83.08C82.5641 83.592 82.6815 84.0613 82.9161 84.488C83.1615 84.904 83.4921 85.2347 83.9081 85.48C84.3348 85.7253 84.8255 85.848 85.3801 85.848ZM97.0318 87V85.208L96.9518 84.872V81.816C96.9518 81.1653 96.7598 80.664 96.3758 80.312C96.0024 79.9493 95.4371 79.768 94.6798 79.768C94.1784 79.768 93.6878 79.8533 93.2078 80.024C92.7278 80.184 92.3224 80.4027 91.9918 80.68L91.3518 79.528C91.7891 79.176 92.3118 78.9093 92.9198 78.728C93.5384 78.536 94.1838 78.44 94.8558 78.44C96.0184 78.44 96.9144 78.7227 97.5438 79.288C98.1731 79.8533 98.4878 80.7173 98.4878 81.88V87H97.0318ZM94.2478 87.096C93.6184 87.096 93.0638 86.9893 92.5838 86.776C92.1144 86.5627 91.7518 86.2693 91.4958 85.896C91.2398 85.512 91.1118 85.08 91.1118 84.6C91.1118 84.1413 91.2184 83.7253 91.4318 83.352C91.6558 82.9787 92.0131 82.68 92.5038 82.456C93.0051 82.232 93.6771 82.12 94.5198 82.12H97.2078V83.224H94.5838C93.8158 83.224 93.2984 83.352 93.0318 83.608C92.7651 83.864 92.6318 84.1733 92.6318 84.536C92.6318 84.952 92.7971 85.288 93.1278 85.544C93.4584 85.7893 93.9171 85.912 94.5038 85.912C95.0798 85.912 95.5811 85.784 96.0078 85.528C96.4451 85.272 96.7598 84.8987 96.9518 84.408L97.2558 85.464C97.0531 85.9653 96.6958 86.3653 96.1838 86.664C95.6718 86.952 95.0264 87.096 94.2478 87.096ZM105.03 87.096C104.123 87.096 103.323 86.9093 102.63 86.536C101.947 86.1627 101.414 85.6507 101.03 85C100.656 84.3493 100.47 83.6027 100.47 82.76C100.47 81.9173 100.651 81.1707 101.014 80.52C101.387 79.8693 101.894 79.3627 102.534 79C103.184 78.6267 103.915 78.44 104.726 78.44C105.547 78.44 106.272 78.6213 106.902 78.984C107.531 79.3467 108.022 79.8587 108.374 80.52C108.736 81.1707 108.918 81.9333 108.918 82.808C108.918 82.872 108.912 82.9467 108.902 83.032C108.902 83.1173 108.896 83.1973 108.886 83.272H101.67V82.168H108.086L107.462 82.552C107.472 82.008 107.36 81.5227 107.126 81.096C106.891 80.6693 106.566 80.3387 106.15 80.104C105.744 79.8587 105.27 79.736 104.726 79.736C104.192 79.736 103.718 79.8587 103.302 80.104C102.886 80.3387 102.56 80.6747 102.326 81.112C102.091 81.5387 101.974 82.0293 101.974 82.584V82.84C101.974 83.4053 102.102 83.912 102.358 84.36C102.624 84.7973 102.992 85.1387 103.462 85.384C103.931 85.6293 104.47 85.752 105.078 85.752C105.579 85.752 106.032 85.6667 106.438 85.496C106.854 85.3253 107.216 85.0693 107.526 84.728L108.374 85.72C107.99 86.168 107.51 86.5093 106.934 86.744C106.368 86.9787 105.734 87.096 105.03 87.096ZM111.301 87V78.52H115.237C116.229 78.52 117.007 78.712 117.573 79.096C118.149 79.4693 118.437 80.0027 118.437 80.696C118.437 81.3893 118.165 81.928 117.621 82.312C117.087 82.6853 116.378 82.872 115.493 82.872L115.733 82.456C116.746 82.456 117.498 82.6427 117.989 83.016C118.479 83.3893 118.725 83.9387 118.725 84.664C118.725 85.4 118.447 85.976 117.892 86.392C117.349 86.7973 116.511 87 115.381 87H111.301ZM112.805 85.816H115.269C115.909 85.816 116.389 85.72 116.709 85.528C117.029 85.3253 117.189 85.0053 117.189 84.568C117.189 84.12 117.039 83.7947 116.741 83.592C116.453 83.3787 115.994 83.272 115.365 83.272H112.805V85.816ZM112.805 82.168H115.109C115.695 82.168 116.138 82.0613 116.437 81.848C116.746 81.624 116.901 81.3147 116.901 80.92C116.901 80.5147 116.746 80.2107 116.437 80.008C116.138 79.8053 115.695 79.704 115.109 79.704H112.805V82.168ZM135.866 87L132.586 82.872L133.85 82.104L137.674 87H135.866ZM129.722 87V78.52H131.258V87H129.722ZM130.794 83.416V82.104H133.594V83.416H130.794ZM133.978 82.936L132.554 82.744L135.802 78.52H137.45L133.978 82.936ZM142.716 78.44C143.59 78.44 144.364 78.6213 145.036 78.984C145.708 79.3467 146.236 79.8587 146.62 80.52C147.014 81.1707 147.212 81.9173 147.212 82.76C147.212 83.6027 147.014 84.3493 146.62 85C146.236 85.6507 145.708 86.1627 145.036 86.536C144.364 86.9093 143.59 87.096 142.716 87.096C141.852 87.096 141.078 86.9093 140.396 86.536C139.724 86.1627 139.19 85.6507 138.796 85C138.412 84.3493 138.22 83.6027 138.22 82.76C138.22 81.9173 138.412 81.1707 138.796 80.52C139.19 79.8587 139.724 79.3467 140.396 78.984C141.078 78.6213 141.852 78.44 142.716 78.44ZM142.716 79.656C142.182 79.656 141.702 79.7627 141.276 79.976C140.86 80.1893 140.518 80.488 140.252 80.872C139.985 81.2453 139.809 81.6933 139.724 82.216H145.692C145.628 81.704 145.457 81.256 145.18 80.872C144.913 80.488 144.566 80.1893 144.14 79.976C143.724 79.7627 143.249 79.656 142.716 79.656ZM142.716 85.864C143.249 85.864 143.724 85.7573 144.14 85.544C144.566 85.3307 144.913 85.032 145.18 84.648C145.457 84.264 145.628 83.816 145.692 83.304H139.724C139.798 83.816 139.969 84.264 140.236 84.648C140.513 85.032 140.865 85.3307 141.292 85.544C141.718 85.7573 142.193 85.864 142.716 85.864ZM154.754 83.528C154.306 83.7413 153.842 83.912 153.362 84.04C152.893 84.1573 152.407 84.216 151.906 84.216C150.882 84.216 150.071 83.976 149.474 83.496C148.887 83.016 148.594 82.2747 148.594 81.272V78.52H150.13V81.176C150.13 81.784 150.317 82.232 150.69 82.52C151.074 82.808 151.586 82.952 152.226 82.952C152.631 82.952 153.047 82.8987 153.474 82.792C153.911 82.6853 154.338 82.536 154.754 82.344V83.528ZM154.642 87V78.52H156.178V87H154.642ZM162.872 78.44C163.747 78.44 164.52 78.6213 165.192 78.984C165.864 79.3467 166.392 79.8587 166.776 80.52C167.171 81.1707 167.368 81.9173 167.368 82.76C167.368 83.6027 167.171 84.3493 166.776 85C166.392 85.6507 165.864 86.1627 165.192 86.536C164.52 86.9093 163.747 87.096 162.872 87.096C162.008 87.096 161.235 86.9093 160.552 86.536C159.88 86.1627 159.347 85.6507 158.952 85C158.568 84.3493 158.376 83.6027 158.376 82.76C158.376 81.9173 158.568 81.1707 158.952 80.52C159.347 79.8587 159.88 79.3467 160.552 78.984C161.235 78.6213 162.008 78.44 162.872 78.44ZM162.872 79.656C162.339 79.656 161.859 79.7627 161.432 79.976C161.016 80.1893 160.675 80.488 160.408 80.872C160.141 81.2453 159.965 81.6933 159.88 82.216H165.848C165.784 81.704 165.613 81.256 165.336 80.872C165.069 80.488 164.723 80.1893 164.296 79.976C163.88 79.7627 163.405 79.656 162.872 79.656ZM162.872 85.864C163.405 85.864 163.88 85.7573 164.296 85.544C164.723 85.3307 165.069 85.032 165.336 84.648C165.613 84.264 165.784 83.816 165.848 83.304H159.88C159.955 83.816 160.125 84.264 160.392 84.648C160.669 85.032 161.021 85.3307 161.448 85.544C161.875 85.7573 162.349 85.864 162.872 85.864ZM173.262 87.096C172.398 87.096 171.625 86.9093 170.942 86.536C170.27 86.1627 169.742 85.6507 169.358 85C168.974 84.3493 168.782 83.6027 168.782 82.76C168.782 81.9173 168.974 81.1707 169.358 80.52C169.742 79.8693 170.27 79.3627 170.942 79C171.625 78.6267 172.398 78.44 173.262 78.44C174.03 78.44 174.713 78.5947 175.31 78.904C175.918 79.2027 176.387 79.6507 176.718 80.248L175.55 81C175.273 80.584 174.931 80.28 174.526 80.088C174.131 79.8853 173.705 79.784 173.246 79.784C172.691 79.784 172.195 79.9067 171.758 80.152C171.321 80.3973 170.974 80.744 170.718 81.192C170.462 81.6293 170.334 82.152 170.334 82.76C170.334 83.368 170.462 83.896 170.718 84.344C170.974 84.792 171.321 85.1387 171.758 85.384C172.195 85.6293 172.691 85.752 173.246 85.752C173.705 85.752 174.131 85.656 174.526 85.464C174.931 85.2613 175.273 84.952 175.55 84.536L176.718 85.272C176.387 85.8587 175.918 86.312 175.31 86.632C174.713 86.9413 174.03 87.096 173.262 87.096ZM181.237 87.768L177.205 78.52H178.821L182.117 86.2H181.333L184.709 78.52H186.197L182.149 87.768H181.237ZM182.469 86.248V90.104H180.917V86.248H182.469ZM196.571 87V75.8H197.883L205.291 85H204.603V75.8H206.203V87H204.891L197.483 77.8H198.171V87H196.571ZM207.979 83.176V82.136H213.035V83.176H207.979ZM210.507 80.872C209.952 80.872 209.461 80.76 209.035 80.536C208.608 80.312 208.272 80.008 208.027 79.624C207.781 79.2293 207.659 78.7813 207.659 78.28C207.659 77.7787 207.781 77.336 208.027 76.952C208.272 76.5573 208.608 76.2533 209.035 76.04C209.472 75.816 209.963 75.704 210.507 75.704C211.061 75.704 211.552 75.816 211.979 76.04C212.405 76.2533 212.736 76.5573 212.971 76.952C213.216 77.336 213.339 77.7787 213.339 78.28C213.339 78.7813 213.216 79.2293 212.971 79.624C212.736 80.008 212.405 80.312 211.979 80.536C211.552 80.76 211.061 80.872 210.507 80.872ZM210.507 79.944C211.029 79.944 211.451 79.7893 211.771 79.48C212.101 79.1707 212.267 78.7707 212.267 78.28C212.267 77.7787 212.101 77.3787 211.771 77.08C211.451 76.7707 211.029 76.616 210.507 76.616C209.984 76.616 209.557 76.7707 209.227 77.08C208.896 77.3787 208.731 77.7787 208.731 78.28C208.731 78.76 208.896 79.16 209.227 79.48C209.557 79.7893 209.984 79.944 210.507 79.944ZM217.423 87L222.175 76.472L222.591 77.192H215.935L216.735 76.408V79.192H215.199V75.8H223.647V76.888L219.119 87H217.423ZM230.402 87.096C230.103 87.096 229.847 86.9947 229.634 86.792C229.421 86.5787 229.314 86.312 229.314 85.992C229.314 85.672 229.421 85.4107 229.634 85.208C229.847 85.0053 230.103 84.904 230.402 84.904C230.69 84.904 230.935 85.0053 231.138 85.208C231.351 85.4107 231.458 85.672 231.458 85.992C231.458 86.312 231.351 86.5787 231.138 86.792C230.935 86.9947 230.69 87.096 230.402 87.096ZM243.501 87L248.253 76.472L248.669 77.192H242.013L242.813 76.408V79.192H241.277V75.8H249.725V76.888L245.197 87H243.501ZM250.951 87V85.912L255.511 81.512C255.917 81.128 256.215 80.792 256.407 80.504C256.61 80.2053 256.743 79.9333 256.807 79.688C256.882 79.432 256.919 79.1867 256.919 78.952C256.919 78.376 256.717 77.9227 256.311 77.592C255.906 77.2613 255.314 77.096 254.535 77.096C253.938 77.096 253.399 77.1973 252.919 77.4C252.439 77.592 252.023 77.896 251.671 78.312L250.583 77.368C251.01 76.824 251.581 76.408 252.295 76.12C253.021 75.8213 253.815 75.672 254.679 75.672C255.458 75.672 256.135 75.8 256.711 76.056C257.287 76.3013 257.73 76.6587 258.039 77.128C258.359 77.5973 258.519 78.152 258.519 78.792C258.519 79.1547 258.471 79.512 258.375 79.864C258.279 80.216 258.098 80.5893 257.831 80.984C257.565 81.3787 257.181 81.8213 256.679 82.312L252.615 86.232L252.231 85.608H258.999V87H250.951ZM260.139 87V85.912L264.699 81.512C265.104 81.128 265.403 80.792 265.595 80.504C265.798 80.2053 265.931 79.9333 265.995 79.688C266.07 79.432 266.107 79.1867 266.107 78.952C266.107 78.376 265.904 77.9227 265.499 77.592C265.094 77.2613 264.502 77.096 263.723 77.096C263.126 77.096 262.587 77.1973 262.107 77.4C261.627 77.592 261.211 77.896 260.859 78.312L259.771 77.368C260.198 76.824 260.768 76.408 261.483 76.12C262.208 75.8213 263.003 75.672 263.867 75.672C264.646 75.672 265.323 75.8 265.899 76.056C266.475 76.3013 266.918 76.6587 267.227 77.128C267.547 77.5973 267.707 78.152 267.707 78.792C267.707 79.1547 267.659 79.512 267.563 79.864C267.467 80.216 267.286 80.5893 267.019 80.984C266.752 81.3787 266.368 81.8213 265.867 82.312L261.803 86.232L261.419 85.608H268.187V87H260.139ZM271.39 87V76.44L272.078 77.192H268.862V75.8H272.974V87H271.39ZM275.248 87V85.912L279.808 81.512C280.214 81.128 280.512 80.792 280.704 80.504C280.907 80.2053 281.04 79.9333 281.104 79.688C281.179 79.432 281.216 79.1867 281.216 78.952C281.216 78.376 281.014 77.9227 280.608 77.592C280.203 77.2613 279.611 77.096 278.832 77.096C278.235 77.096 277.696 77.1973 277.216 77.4C276.736 77.592 276.32 77.896 275.968 78.312L274.88 77.368C275.307 76.824 275.878 76.408 276.592 76.12C277.318 75.8213 278.112 75.672 278.976 75.672C279.755 75.672 280.432 75.8 281.008 76.056C281.584 76.3013 282.027 76.6587 282.336 77.128C282.656 77.5973 282.816 78.152 282.816 78.792C282.816 79.1547 282.768 79.512 282.672 79.864C282.576 80.216 282.395 80.5893 282.128 80.984C281.862 81.3787 281.478 81.8213 280.976 82.312L276.912 86.232L276.528 85.608H283.296V87H275.248ZM286.5 87V76.44L287.188 77.192H283.972V75.8H288.084V87H286.5Z" fill="#252B42"/>
<path fill-rule="evenodd" clip-rule="evenodd" d="M4 6.75C4 4.67893 5.67893 3 7.75 3C9.82107 3 11.5 4.67893 11.5 6.75C11.5 8.82107 9.82107 10.5 7.75 10.5C5.67893 10.5 4 8.82107 4 6.75ZM7.75 4.5C6.50736 4.5 5.5 5.50736 5.5 6.75C5.5 7.99264 6.50736 9 7.75 9C8.99264 9 10 7.99264 10 6.75C10 5.50736 8.99264 4.5 7.75 4.5Z" fill="#252B42"/>
<path fill-rule="evenodd" clip-rule="evenodd" d="M1.20641 5.87724C1.48017 2.55603 4.25555 0 7.58803 0H7.91198C11.2445 0 14.0198 2.55603 14.2936 5.87724C14.4403 7.65751 13.8904 9.42525 12.7597 10.8081L9.16489 15.2045C8.43361 16.0988 7.06639 16.0988 6.33512 15.2045L2.74032 10.8081C1.60958 9.42525 1.05967 7.65751 1.20641 5.87724ZM7.58803 1.5C5.03621 1.5 2.91097 3.45726 2.70134 6.00046C2.58652 7.39343 3.0168 8.77659 3.90154 9.85861L7.49634 14.255C7.62745 14.4153 7.87256 14.4153 8.00367 14.255L11.5985 9.85861C12.4832 8.77659 12.9135 7.39343 12.7987 6.00046C12.589 3.45726 10.4638 1.5 7.91198 1.5H7.58803Z" fill="#252B42"/>
<path d="M3.42082 14.0854C3.60606 13.7149 3.45589 13.2644 3.08541 13.0792C2.71493 12.8939 2.26442 13.0441 2.07918 13.4146L0.0791804 17.4146C-0.0370653 17.6471 -0.0246423 17.9232 0.112013 18.1443C0.248668 18.3654 0.490068 18.5 0.750001 18.5H14.75C15.0099 18.5 15.2513 18.3654 15.388 18.1443C15.5246 17.9232 15.5371 17.6471 15.4208 17.4146L13.4208 13.4146C13.2356 13.0441 12.7851 12.8939 12.4146 13.0792C12.0441 13.2644 11.8939 13.7149 12.0792 14.0854L13.5365 17H1.96353L3.42082 14.0854Z" fill="#252B42"/>
</svg>
